<?xml version="1.0" encoding="UTF-8" standalone="no"?>
<!-- Created with Inkscape (http://www.inkscape.org/) -->

<svg
   width="131.22mm"
   height="33.074333mm"
   viewBox="0 0 131.22 33.074333"
   version="1.1"
   id="svg5"
   inkscape:version="1.2.2 (732a01da63, 2022-12-09)"
   sodipodi:docname="logo.svg"
   xml:space="preserve"
   inkscape:export-filename="logoExported.svg"
   inkscape:export-xdpi="96"
   inkscape:export-ydpi="96"
   xmlns:inkscape="http://www.inkscape.org/namespaces/inkscape"
   xmlns:sodipodi="http://sodipodi.sourceforge.net/DTD/sodipodi-0.dtd"
   xmlns="http://www.w3.org/2000/svg"
   xmlns:svg="http://www.w3.org/2000/svg"><sodipodi:namedview
     id="namedview7"
     pagecolor="#505050"
     bordercolor="#ffffff"
     borderopacity="1"
     inkscape:showpageshadow="0"
     inkscape:pageopacity="0"
     inkscape:pagecheckerboard="1"
     inkscape:deskcolor="#505050"
     inkscape:document-units="mm"
     showgrid="false"
     inkscape:zoom="2.1719924"
     inkscape:cx="245.39681"
     inkscape:cy="76.88793"
     inkscape:window-width="1920"
     inkscape:window-height="1057"
     inkscape:window-x="-8"
     inkscape:window-y="-5"
     inkscape:window-maximized="1"
     inkscape:current-layer="layer1"
     showguides="true"><sodipodi:guide
       position="64.238456,32.7669"
       orientation="0,-1"
       id="guide280"
       inkscape:locked="false" /><sodipodi:guide
       position="61.826626,12.26632"
       orientation="0,-1"
       id="guide282"
       inkscape:locked="false" /><sodipodi:guide
       position="60.368667,50.574897"
       orientation="1,0"
       id="guide379"
       inkscape:locked="false" /></sodipodi:namedview><defs
     id="defs2" /><g
     inkscape:label="Layer 1"
     inkscape:groupmode="layer"
     id="layer1"
     transform="translate(-128.41528,-183.65021)"><text
       xml:space="preserve"
       style="font-size:28.2222px;fill:#ffffff;stroke-width:0.264583"
       x="127.03725"
       y="203.86601"
       id="text113"><tspan
         sodipodi:role="line"
         id="tspan111"
         style="font-style:normal;font-variant:normal;font-weight:normal;font-stretch:normal;font-size:28.2222px;font-family:Queensides;-inkscape-font-specification:Queensides;fill:#ffffff;stroke-width:0.264583"
         x="127.03725"
         y="203.86601">BELM</tspan></text><path
       d="m 199.25142,184.29702 c -0.0736,0.0736 -1.01748,1.19242 -2.09481,2.49073 -1.70808,2.0534 -1.9613,2.37568 -1.9613,2.50919 0.005,0.12431 0.89318,1.31215 5.7688,7.69786 4.26791,5.58925 5.79643,7.55977 5.89311,7.59197 0.0783,0.0276 0.17034,0.0276 0.25321,0 0.0921,-0.0323 1.6114,-1.98891 5.88851,-7.59197 4.86642,-6.37651 5.76419,-7.57355 5.7688,-7.69786 0,-0.13351 -0.24861,-0.45118 -1.96131,-2.50919 -1.07732,-1.29831 -2.02113,-2.41707 -2.09481,-2.49073 l -0.13351,-0.12432 h -7.59659 -7.59657 z m 4.94469,2.49996 c -1.01288,1.01286 -1.8508,1.82318 -1.86922,1.80476 -0.0368,-0.0414 -2.11323,-3.60492 -2.11323,-3.62795 0,-0.009 1.31213,-0.0184 2.90973,-0.0184 h 2.91432 z m 9.55327,-1.82319 c 0,0.023 -2.07639,3.58651 -2.11323,3.62795 -0.0184,0.0184 -0.85633,-0.7919 -1.86921,-1.80476 l -1.8416,-1.8416 h 2.91433 c 1.59758,0 2.90971,0.009 2.90971,0.0184 z m -4.88022,2.03036 1.86461,1.86463 h -3.75225 -3.75224 l 1.8646,-1.86463 c 1.02669,-1.02669 1.87383,-1.86462 1.88764,-1.86462 0.0139,0 0.86096,0.83793 1.88764,1.86462 z m -8.33782,0.0874 c 0.56169,0.95763 1.01747,1.74952 1.01747,1.75873 0,0.009 -1.13718,0.0184 -2.53218,0.0184 -1.39041,0 -2.53221,-0.009 -2.53221,-0.023 0,-0.069 2.96498,-3.56808 2.9972,-3.53587 0.0184,0.0184 0.49263,0.81951 1.04972,1.78175 z m 15.4694,-0.0414 c 0.81491,0.97603 1.47788,1.78173 1.47788,1.79554 0,0.0138 -1.13718,0.023 -2.53219,0.023 -1.3904,0 -2.53221,-0.009 -2.53221,-0.0184 0,-0.009 0.38674,-0.67679 0.85636,-1.48248 0.46959,-0.8103 0.9392,-1.6068 1.0405,-1.78175 0.0967,-0.17035 0.18876,-0.30847 0.19796,-0.30847 0.009,0 0.68139,0.7965 1.4917,1.77255 z m -12.40315,7.74851 c 0.88396,2.80383 1.76793,5.60306 1.96131,6.21998 0.19796,0.61694 0.33148,1.09576 0.29924,1.05893 -0.10128,-0.10589 -9.41976,-12.3341 -9.41976,-12.35711 0,-0.0139 1.24768,-0.023 2.77621,-0.023 h 2.77161 z m 7.52752,-5.06899 c 0.005,0.0782 -4.11596,13.08914 -4.14359,13.08914 -0.0276,0 -4.14819,-13.01088 -4.1436,-13.08914 0,-0.0414 8.28719,-0.0414 8.28719,0 z m 6.39955,-0.009 c 0,0.023 -9.31847,12.25122 -9.41976,12.35711 -0.0323,0.0368 0.10129,-0.44198 0.29925,-1.05892 0.19337,-0.61692 1.07734,-3.41616 1.9613,-6.21999 l 1.6114,-5.10122 h 2.77621 c 1.52391,0 2.7716,0.009 2.7716,0.023 z"
       id="path268"
       style="fill:#ffffff;stroke:none;stroke-width:0.004604" /><text
       xml:space="preserve"
       style="font-style:normal;font-variant:normal;font-weight:normal;font-stretch:normal;font-size:28.2223px;font-family:Queensides;-inkscape-font-specification:Queensides;fill:#ffffff;stroke-width:0.264583"
       x="219.89255"
       y="204.43315"
       id="text388"><tspan
         sodipodi:role="line"
         id="tspan386"
         style="fill:#ffffff;stroke-width:0.264583"
         x="219.89255"
         y="204.43315">ND</tspan></text><text
       xml:space="preserve"
       style="font-style:normal;font-variant:normal;font-weight:normal;font-stretch:normal;font-size:14.1111px;font-family:Queensides;-inkscape-font-specification:Queensides;fill:#ffffff;stroke-width:0.264583"
       x="168.08745"
       y="216.29735"
       id="text388-0"><tspan
         sodipodi:role="line"
         id="tspan386-6"
         style="font-size:14.1111px;fill:#ffffff;stroke-width:0.264583"
         x="168.08745"
         y="216.29735">HOTEL</tspan></text><text
       xml:space="preserve"
       style="font-style:normal;font-variant:normal;font-weight:normal;font-stretch:normal;font-size:14.1111px;font-family:Queensides;-inkscape-font-specification:Queensides;fill:#ffffff;stroke-width:0.264583"
       x="166.3493"
       y="180.33755"
       id="text388-0-5"><tspan
         sodipodi:role="line"
         id="tspan386-6-8"
         style="font-size:14.1111px;fill:#ffffff;stroke-width:0.264583"
         x="166.3493"
         y="180.33755" /></text></g></svg>
