<?xml version="1.0" encoding="utf-8"?>
<!-- Generator: Adobe Illustrator 24.0.1, SVG Export Plug-In . SVG Version: 6.00 Build 0)  -->
<svg version="1.1" id="Calque_1" xmlns="http://www.w3.org/2000/svg" xmlns:xlink="http://www.w3.org/1999/xlink" x="0px" y="0px"
	 viewBox="0 0 500 500" style="enable-background:new 0 0 500 500;" xml:space="preserve">
<style type="text/css">
	.st0{fill-rule:evenodd;clip-rule:evenodd;fill:#75CBED;}
</style>
<g>
	<title>Logomark</title>
	<polygon class="st0" points="183.41,52.68 100.24,100.56 17.1,52.7 100.25,4.83 	"/>
	<polygon class="st0" points="482.9,109.17 399.75,157.07 316.59,109.18 399.75,61.3 	"/>
	<polygon class="st0" points="491.25,123.57 491.25,218.35 408.06,266.25 408.06,171.47 456.33,143.68 	"/>
	<polygon class="st0" points="391.43,171.47 391.43,266.25 356.49,246.13 308.24,218.35 308.24,123.57 343.16,143.68 	"/>
	<polygon class="st0" points="391.43,294.96 391.43,389.8 208.41,495.17 208.41,399.44 343.96,322.08 	"/>
	<polygon class="st0" points="383.02,280.62 322.04,315.4 200.07,385.05 117.04,338.06 204.24,287.86 299.93,232.77 	"/>
	<polygon class="st0" points="191.77,67.08 191.77,275.82 143.52,303.6 108.57,323.72 108.57,114.98 156.84,87.19 	"/>
	<path class="st0" d="M191.76,399.44v95.72L8.75,389.8V67.08l34.94,20.09l48.25,27.81v223.14c0,0.32,0.08,0.63,0.12,0.94
		c0.05,0.41,0.06,0.83,0.17,1.21v0.02c0.08,0.34,0.26,0.61,0.38,0.94c0.14,0.35,0.26,0.72,0.45,1.03v0.03
		c0.17,0.29,0.42,0.54,0.63,0.81c0.23,0.29,0.41,0.61,0.69,0.88l0.02,0.03c0.23,0.23,0.52,0.4,0.78,0.6
		c0.31,0.23,0.57,0.49,0.89,0.69l0.05,0.02l0.03,0.02L191.76,399.44z"/>
</g>
</svg>
